<?xml version="1.0" encoding="UTF-8" standalone="no"?>
<!-- Created with Inkscape (http://www.inkscape.org/) -->

<svg
   width="122.12098mm"
   height="123.06182mm"
   viewBox="0 0 122.12098 123.06182"
   version="1.1"
   id="svg1"
   inkscape:version="1.4.2 (ebf0e940d0, 2025-05-08)"
   sodipodi:docname="papagai.svg"
   xmlns:inkscape="http://www.inkscape.org/namespaces/inkscape"
   xmlns:sodipodi="http://sodipodi.sourceforge.net/DTD/sodipodi-0.dtd"
   xmlns="http://www.w3.org/2000/svg"
   xmlns:svg="http://www.w3.org/2000/svg">
  <sodipodi:namedview
     id="namedview1"
     pagecolor="#ffffff"
     bordercolor="#000000"
     borderopacity="0.25"
     inkscape:showpageshadow="2"
     inkscape:pageopacity="0.0"
     inkscape:pagecheckerboard="0"
     inkscape:deskcolor="#d1d1d1"
     inkscape:document-units="mm"
     inkscape:zoom="0.912136"
     inkscape:cx="791.54863"
     inkscape:cy="446.20539"
     inkscape:window-width="3072"
     inkscape:window-height="1659"
     inkscape:window-x="0"
     inkscape:window-y="0"
     inkscape:window-maximized="1"
     inkscape:current-layer="layer1" />
  <defs
     id="defs1" />
  <g
     inkscape:label="Layer 1"
     inkscape:groupmode="layer"
     id="layer1"
     transform="translate(-45.320568,-76.435061)">
    <path
       style="fill:#000000;stroke-width:0.264583"
       d="M 101.16341,199.35205 C 98.655682,199.12419 93.335812,198.11088 90.347502,197.29188 76.272212,193.43427 63.760328,184.28333 55.350118,171.69549 42.392534,152.30145 41.95174,125.86638 54.251926,105.83523 61.888544,93.398817 73.540572,84.067723 87.081242,79.545094 c 6.79219,-2.268609 12.2706,-3.136032 19.638418,-3.109442 11.17721,0.04034 21.09184,2.767624 30.48696,8.386258 5.03716,3.01241 7.72822,5.121817 11.98235,9.392483 7.73063,7.760647 12.54383,15.657087 15.57435,25.550897 3.70083,12.0822 3.55415,25.55221 -0.40837,37.50192 -1.05174,3.17172 -4.35631,10.53123 -5.16776,11.50896 -0.21753,0.26211 -0.58961,-0.20182 -1.58279,-1.97355 l -1.29841,-2.31622 1.32296,-2.78601 c 4.17442,-8.79088 6.03318,-19.64842 5.0341,-29.4055 -2.05155,-20.03532 -13.86051,-36.987683 -31.86631,-45.745683 -7.84421,-3.815413 -15.55319,-5.58851 -24.34167,-5.598689 -23.083308,-0.02674 -44.096211,14.265754 -52.62584,35.794882 -5.163923,13.03394 -5.271923,28.46406 -0.290595,41.51737 1.155431,3.02774 4.304787,9.19364 5.594628,10.95332 l 0.950426,1.29663 3.859895,-5.86069 3.859898,-5.86069 4.24454,-0.01 4.24455,-0.01 0.52917,-1.11489 0.52917,-1.11489 2.55888,-0.13229 c 1.40739,-0.0728 2.61599,-0.19182 2.68578,-0.26458 0.19842,-0.20685 0.63884,-3.42102 0.48926,-3.57059 -0.0735,-0.0735 -4.57858,-0.1336 -10.01136,-0.1336 h -9.877773 v -16.13874 -16.13959 h 18.672163 18.672158 l -0.18436,1.52135 c -0.10141,0.83675 -0.23606,1.61065 -0.29924,1.7198 -0.0632,0.10914 -7.606528,0.19843 -16.762988,0.19843 H 66.645303 l -0.07116,12.70007 -0.07116,12.70007 20.306769,-7e-5 20.306768,-6e-5 v -3.175 c 0,-1.74625 0.0319,-3.175 0.0709,-3.175 0.039,0 0.81292,0.68874 1.71979,1.53054 l 1.64886,1.53054 v 3.36425 3.36425 h -10.18645 c -7.978938,0 -10.183958,0.0717 -10.174918,0.33073 0.006,0.1819 0.1598,1.0451 0.341,1.91823 l 0.32946,1.5875 2.58863,0.076 2.58864,0.076 0.52233,1.18081 0.52233,1.18081 6.668338,0.0117 6.66835,0.0117 -1.00324,0.52946 c -0.55178,0.29121 -1.32568,0.9958 -1.71979,1.56577 -0.3941,0.56996 -0.93876,1.04082 -1.21035,1.04634 -0.45588,0.009 -0.48558,0.21451 -0.3868,2.67371 l 0.10698,2.66366 -0.74855,0.14971 c -0.7468,0.14936 -0.74837,0.1541 -0.67152,2.03269 l 0.077,1.88298 11.73111,0.0689 11.7311,0.0689 -0.51533,-0.86267 c -1.63056,-2.72957 -1.709,-2.96051 -1.39799,-4.11553 l 0.29528,-1.0966 3.18377,-0.0742 3.18377,-0.0742 -1.06935,-1.65365 -1.06936,-1.65364 h -2.38473 c -2.31794,0 -2.41871,-0.0259 -3.59791,-0.92604 -0.66725,-0.50933 -1.32312,-0.92604 -1.4575,-0.92604 -0.48465,0 -0.22877,-0.42426 0.52411,-0.869 0.63646,-0.37596 1.46873,-0.45392 4.84607,-0.45392 h 4.07765 l 0.56479,0.99219 c 0.31064,0.5457 1.64721,2.54 2.97017,4.43177 1.55635,2.22552 3.42885,5.44746 5.305,9.12812 3.04816,5.97991 3.41921,6.53442 5.36793,8.02191 l 1.21101,0.92439 -2.17062,2.08295 c -7.90734,7.58796 -20.12861,13.12753 -32.55558,14.75656 -2.8258,0.37043 -9.53454,0.49024 -12.47755,0.22282 z m 14.03793,-5.08762 c 7.89155,-1.31321 15.67029,-4.38128 22.10048,-8.71679 1.51543,-1.02178 3.11252,-2.15738 3.54908,-2.52356 l 0.79375,-0.66579 -35.12343,-0.01 c -19.317888,-0.005 -35.123438,0.0667 -35.123438,0.15976 0,0.5291 6.82538,4.93013 10.18646,6.56825 6.63004,3.23136 12.13509,4.75096 21.034368,5.80626 2.1233,0.25179 9.54486,-0.11308 12.58273,-0.6186 z m -42.008808,-18.47361 0.78113,-2.05052 -2.8901,-0.075 c -1.58956,-0.0412 -4.147972,-0.0412 -5.685365,0 l -2.795254,0.075 1.665094,2.05052 1.665097,2.05052 h 3.239138 3.23914 z m 8.27656,0.26458 c 0.3242,-0.98226 0.6458,-1.93867 0.71467,-2.12534 0.0984,-0.26662 -0.54399,-0.32335 -2.99562,-0.26458 l -3.12083,0.0748 -0.74281,2.05052 -0.74282,2.05052 h 3.14898 3.14898 z m 34.114108,1.56084 c 0,-0.12381 -0.11324,-0.57029 -0.25165,-0.99219 -0.1384,-0.4219 -0.38138,-1.27408 -0.53995,-1.89373 l -0.2883,-1.12664 -15.109608,0.0683 -15.10961,0.0683 -0.48073,1.71979 c -0.2644,0.94588 -0.48491,1.86862 -0.49002,2.05052 -0.007,0.26107 3.39005,0.33073 16.13028,0.33073 8.876768,0 16.139588,-0.1013 16.139588,-0.2251 z m 7.68212,-1.82542 -0.74708,-2.05052 -2.93835,-0.0748 c -1.6161,-0.0411 -2.93836,-0.0239 -2.93836,0.0383 0,0.19303 1.10845,3.72927 1.23474,3.93914 0.0657,0.10914 1.47317,0.19844 3.12777,0.19844 h 3.00836 z m 9.23256,1.85208 c -0.0103,-0.10914 -0.45674,-1.0914 -0.99218,-2.18281 l -0.97355,-1.98438 -2.38124,-0.0778 c -1.30969,-0.0428 -2.64252,-0.0124 -2.96185,0.0675 l -0.5806,0.1453 0.48654,1.38771 c 0.2676,0.76325 0.61522,1.71514 0.77249,2.11532 l 0.28594,0.72761 h 3.18155 c 1.74985,0 3.17316,-0.0893 3.1629,-0.19844 z m 8.48532,0.0947 c 0,-0.0571 -0.54287,-1.06909 -1.20638,-2.24896 l -1.20637,-2.1452 h -2.89467 c -1.72092,0 -2.89467,0.10551 -2.89467,0.26021 0,0.14311 0.44283,1.15514 0.98407,2.24896 l 0.98405,1.98875 h 3.11699 c 1.71434,0 3.11698,-0.0467 3.11698,-0.10376 z M 78.730742,169.97 c 0.32087,-0.83674 0.66042,-1.72971 0.75457,-1.98437 0.16015,-0.43322 -0.25618,-0.46302 -6.4684,-0.46302 h -6.639574 l -0.614257,0.99219 c -0.337844,0.5457 -0.884827,1.43867 -1.215525,1.98437 l -0.601265,0.99219 h 7.100531 7.10053 z m 8.113,-0.18666 c 0.23597,-0.93942 0.42904,-1.83238 0.42904,-1.98438 0,-0.17457 -1.02555,-0.27635 -2.78467,-0.27635 -3.14227,0 -2.81919,-0.22965 -3.6599,2.60136 l -0.40607,1.36739 h 2.99628 2.99628 z m 7.93051,0.31896 c 0.33519,-2.7906 0.54789,-2.57969 -2.60164,-2.57969 -2.65934,0 -2.77863,0.0244 -2.90827,0.59531 -0.38197,1.68196 -0.6564,2.99782 -0.66217,3.175 -0.004,0.10914 1.34616,0.19844 2.99938,0.19844 h 3.00586 z m 7.844358,-0.59532 v -1.98437 h -2.887838 -2.88784 l -0.1003,1.78594 c -0.0552,0.98226 -0.0583,1.87523 -0.007,1.98437 0.0513,0.10914 1.396,0.19844 2.98815,0.19844 h 2.894788 z m 33.83773,0.99219 c -1.89846,-3.13277 -1.60186,-2.87919 -3.58694,-3.06664 -2.29772,-0.21698 -4.18649,-0.22144 -4.39755,-0.0104 -0.15831,0.15832 1.18325,3.06283 1.72676,3.73848 0.18715,0.23265 1.24362,0.33073 3.56252,0.33073 h 3.29648 z m -62.221728,-6.54844 c 0.46885,-0.87312 0.85581,-1.67679 0.8599,-1.78593 0.004,-0.10914 -1.17457,-0.19844 -2.61924,-0.19844 h -2.62667 l -0.94521,1.55596 c -0.51985,0.85578 -0.94519,1.69339 -0.94519,1.86134 0,0.21582 0.79532,0.28326 2.71198,0.22998 l 2.71198,-0.0754 z m 6.27544,1.49006 c 0.65505,-0.14074 0.87442,-0.41634 1.38907,-1.74505 0.33614,-0.86785 0.61116,-1.61199 0.61116,-1.65364 0,-0.0417 -1.17437,-0.0757 -2.6097,-0.0757 h -2.6097 l -0.69759,1.55444 c -0.38368,0.85494 -0.69759,1.68838 -0.69759,1.85208 0,0.32131 3.21474,0.36861 4.61435,0.0679 z m 7.42129,0.012 c 1.03321,-0.18326 1.06487,-0.22214 1.50308,-1.84589 l 0.44763,-1.65868 -2.6575,0.0752 -2.65751,0.0752 -0.59533,1.64572 c -0.32743,0.90516 -0.53223,1.70883 -0.45511,1.78594 0.19803,0.19803 3.15393,0.14615 4.41474,-0.0775 z m 7.604,0.0488 c 0.88903,-0.14696 1.00125,-0.2578 1.13556,-1.12157 0.082,-0.52716 0.2006,-1.2859 0.26364,-1.68609 l 0.11459,-0.7276 h -2.62093 -2.62093 l -0.37705,1.65364 c -0.20738,0.90951 -0.32765,1.74295 -0.26726,1.85209 0.13198,0.23852 2.99133,0.25783 4.37238,0.0295 z m 8.538478,-1.68318 v -1.71979 l -2.54643,-0.0753 c -2.898168,-0.0857 -2.866748,-0.11196 -2.873908,2.39969 l -0.004,1.26603 2.711978,-0.0754 2.71198,-0.0754 z m 61.05646,24.99212 c -3.04734,-0.82068 -5.52715,-2.57574 -7.08745,-5.01608 -0.46522,-0.7276 -2.96206,-5.19244 -5.54854,-9.92187 -5.88619,-10.763 -6.26016,-11.42454 -6.38684,-11.29787 -0.12824,0.12824 3.24818,7.74129 7.73214,17.43419 0.78711,1.70148 1.43111,3.14922 1.43111,3.21719 0,0.068 -0.60949,-0.0372 -1.35442,-0.23369 -2.43592,-0.64259 -4.25218,-1.72067 -6.19233,-3.67559 -1.83339,-1.84735 -1.9268,-2.01218 -6.99319,-12.33981 l -5.13497,-10.46747 -3.85474,-1.2967 c -2.1201,-0.71319 -3.91394,-1.28002 -3.98632,-1.25962 -0.0724,0.0204 -0.34871,0.77434 -0.61408,1.67544 l -0.4825,1.63837 -1.31512,-0.17446 c -1.47747,-0.19599 -1.64279,-0.10496 -4.15608,2.28836 -1.42507,1.35704 -1.47145,1.77752 -0.19718,1.78761 0.90798,0.007 2.66185,1.02925 3.13202,1.82519 0.56491,0.95632 0.60421,3.17507 0.0688,3.88298 -0.36807,0.48662 -0.3889,0.46951 -0.39688,-0.32596 -0.0113,-1.1277 -1.21991,-2.31025 -2.75663,-2.6972 -1.85986,-0.46832 -8.75242,-0.39146 -9.80784,0.10937 -1.09619,0.52018 -2.11927,1.61519 -2.46064,2.63363 l -0.26606,0.79375 -0.29612,-0.74483 c -0.38045,-0.95693 -0.38005,-2.69848 8e-4,-3.43975 0.43893,-0.85436 1.58851,-2.02868 2.40192,-2.45363 0.45964,-0.24012 1.55765,-0.37325 3.07851,-0.37325 h 2.36404 l 2.54389,-2.26924 c 1.39914,-1.24809 2.54389,-2.36962 2.54389,-2.4923 0,-0.12268 -0.63951,-1.58407 -1.42113,-3.24755 -1.12867,-2.40206 -1.63233,-3.17913 -2.4474,-3.7759 -3.33972,-2.44525 -4.15043,-3.11003 -6.27854,-5.14834 -5.21816,-4.99798 -8.57967,-11.06743 -9.06601,-16.36934 -0.14099,-1.53708 0.14289,-5.13484 0.58087,-7.36164 0.11532,-0.58631 -0.0791,-1.0438 -0.92184,-2.16946 -1.06301,-1.41985 -1.07517,-1.42676 -2.613208,-1.48686 -1.73912,-0.0679 -3.5662,-0.77869 -5.07628,-1.97469 l -1.00772,-0.79813 -0.40266,0.8587 c -0.22147,0.47229 -0.54403,1.39074 -0.71681,2.04101 l -0.31414,1.1823 -0.77596,-0.91772 c -2.54611,-3.01125 -3.00329,-7.5423 -1.16596,-11.55556 l 0.68905,-1.50508 -0.77235,-0.60445 c -0.4248,-0.33245 -0.97431,-1.1092 -1.22115,-1.72611 -1.28262,-3.205582 1.42636,-6.226319 4.70326,-5.244535 0.88589,0.265416 1.11134,0.261675 1.20523,-0.02 0.24083,-0.722495 2.45463,-2.820289 3.6669,-3.474749 0.69473,-0.37506 2.545918,-1.050494 4.113768,-1.500968 1.56784,-0.450474 3.80027,-1.296514 4.96093,-1.880087 2.32979,-1.17139 2.53305,-1.068938 1.58115,0.796946 -0.67343,1.32002 -0.67064,1.336477 0.19843,1.171909 1.04054,-0.197033 6.26161,-0.574202 6.39896,-0.462256 0.0633,0.0516 -0.35257,0.572743 -0.92416,1.158105 -1.23277,1.262472 -1.22039,1.277239 1.86739,2.228249 2.78095,0.856506 5.35925,1.384361 7.87575,1.6124 1.12537,0.101978 2.04613,0.269134 2.04613,0.371454 0,0.305702 -2.64125,1.648346 -4.21879,2.144569 l -1.46975,0.46232 0.95655,0.407786 c 0.5261,0.224282 2.01438,0.65785 3.30729,0.963486 1.29291,0.305631 2.70793,0.651561 3.14449,0.768731 l 0.79375,0.21304 -1.27968,0.58803 c -0.70382,0.32342 -2.05011,0.7157 -2.99175,0.87174 l -1.71209,0.2837 1.27197,1.3035 c 0.69958,0.71693 2.22447,2.08914 3.38863,3.04936 1.16417,0.96022 2.23573,1.85157 2.38125,1.98078 0.15581,0.13834 -0.68741,0.20007 -2.05114,0.15015 -1.27364,-0.0466 -2.31544,-0.0532 -2.3151,-0.0146 2.6e-4,0.0386 0.34602,0.69343 0.76817,1.45521 0.42216,0.76178 1.02298,2.09943 1.33516,2.97256 0.55637,1.55607 0.60774,1.60844 2.59504,2.64583 2.32557,1.21396 6.43603,4.97786 9.24624,8.46667 2.38806,2.96473 5.41103,7.52572 5.20688,7.85603 -0.10625,0.17192 -1.00138,0.23285 -2.36742,0.16115 -1.97852,-0.10384 -2.35761,-0.21468 -3.81872,-1.11653 -0.89217,-0.55068 -1.67683,-0.94655 -1.74367,-0.87971 -0.24818,0.24819 2.07987,2.30133 3.27946,2.8922 0.96073,0.47322 1.67521,0.60941 3.15335,0.60107 1.08954,-0.006 1.95693,0.10759 2.01762,0.26458 0.0585,0.15145 1.76521,2.53756 3.79258,5.30246 2.02738,2.7649 3.7854,5.19173 3.90671,5.39297 0.18239,0.30255 -0.0492,0.33439 -1.33813,0.18396 -4.01054,-0.46807 -7.40675,-2.39301 -11.04962,-6.26282 -2.07931,-2.20884 -2.29691,-2.36801 -2.84001,-2.07735 -0.80482,0.43073 -3.08661,0.16175 -4.42646,-0.52178 -0.59521,-0.30366 -1.7415,-1.08911 -2.5473,-1.74545 -0.80581,-0.65633 -1.4651,-1.09002 -1.4651,-0.96376 0,0.50012 1.92557,2.71123 2.98165,3.4238 1.59562,1.07662 2.71572,1.47037 4.3189,1.51822 1.36855,0.0409 1.43059,0.0775 2.6366,1.55802 2.5188,3.09209 6.68044,5.82108 10.04086,6.58427 l 1.45683,0.33086 3.43626,5.02078 c 2.74914,4.01682 3.34079,5.03637 2.95882,5.09875 -0.81731,0.13347 -6.64405,-1.23756 -9.93335,-2.33733 -5.2706,-1.7622 -14.74148,-6.01916 -16.70594,-7.50896 -0.50475,-0.38279 -0.48561,-0.4017 0.415,-0.40973 1.27679,-0.0114 3.49394,-0.69408 4.25469,-1.31009 l 0.62124,-0.50305 -0.79338,-0.60842 c -1.43398,-1.09965 -4.65444,-4.30232 -6.03816,-6.0048 -2.15555,-2.65211 -1.88371,-1.23377 0.42171,2.20024 0.58617,0.87313 1.53928,2.15781 2.11802,2.85486 0.57875,0.69705 0.98706,1.33257 0.90737,1.41226 -0.39898,0.39898 -3.36642,0.39927 -4.73827,5.3e-4 -3.74679,-1.08922 -9.38757,-6.91571 -11.96704,-12.36103 -1.38396,-2.92157 -2.0086,-5.34494 -2.08212,-8.07789 -0.0288,-1.07104 -0.13325,-1.94853 -0.23207,-1.94998 -0.32786,-0.005 -0.82786,3.01002 -0.83328,5.02444 -0.0149,5.53058 4.71534,12.70806 11.86087,17.99723 6.14259,4.54678 15.82829,9.24228 23.79972,11.53779 1.73922,0.50084 3.18272,0.93621 3.20777,0.96749 0.0251,0.0313 1.14873,2.14047 2.49706,4.68708 1.34833,2.54662 3.66875,6.83287 5.15648,9.525 3.06436,5.54504 8.86293,16.51473 8.86293,16.76674 0,0.2528 -0.77804,0.17156 -2.31125,-0.24136 z m -56.5902,-74.0752 c 0.8441,-0.21986 2.045,-0.69878 2.66866,-1.06428 1.52967,-0.89644 3.62543,-3.15902 4.546,-4.90785 0.69701,-1.32413 0.7545,-1.65508 0.7545,-4.34375 0,-2.65608 -0.0651,-3.04309 -0.74532,-4.428591 -1.60374,-3.266758 -5.02337,-5.539171 -8.60799,-5.720189 -1.08104,-0.05459 -2.40102,0.03122 -2.93329,0.190696 -2.5008,0.749258 -4.670288,3.052302 -5.318288,5.645704 l -0.31081,1.24386 -0.83173,-0.7802 c -1.21411,-1.138883 -2.42474,-1.661713 -3.06023,-1.321607 -0.81895,0.438288 -1.0788,0.327644 -1.0788,-0.45934 0,-1.17166 -0.67787,-1.910956 -1.75219,-1.910956 -1.20532,0 -1.85278,0.36363 -2.34611,1.31762 -0.53346,1.031594 -0.50221,1.818183 0.11228,2.825943 0.7541,1.23671 1.4425,1.34539 2.52144,0.39807 1.10674,-0.97172 1.73574,-1.18726 2.55411,-0.87519 1.32104,0.50374 3.94381,2.7656 5.339818,4.60499 2.6288,3.46374 3.45399,5.84913 2.88197,8.33091 -0.2567,1.11372 -0.25135,1.12647 0.57259,1.3652 1.28938,0.37359 3.34706,0.32819 5.03339,-0.11104 z m -3.18086,-7.78446 c -1.37319,-0.33686 -2.7059,-1.31964 -3.40334,-2.50972 -3.210558,-5.478414 3.28101,-11.204175 8.06252,-7.11138 1.25044,1.070329 1.72576,1.891839 1.97986,3.42186 0.61737,3.7174 -2.99729,7.0926 -6.63904,6.19924 z m 3.3219,-2.07335 c 2.47221,-1.8305 2.47221,-4.906471 0,-6.736972 -1.10396,-0.817409 -2.56688,-0.873739 -3.91797,-0.150855 -2.91637,1.560362 -2.86982,5.753277 0.0792,7.130647 1.28862,0.60186 2.82966,0.50439 3.83881,-0.24282 z m -3.37055,-1.99648 c -0.76313,-0.81231 -0.73336,-1.89945 0.0741,-2.70695 0.81392,-0.813913 1.50124,-0.822383 2.42262,-0.0299 0.51449,0.44255 0.72031,0.87014 0.72031,1.49644 0,1.67847 -2.05951,2.47253 -3.21707,1.24036 z m -14.414368,-2.50567 c -0.88516,-0.978093 -0.32453,-2.309829 0.89576,-2.12779 0.89952,0.134189 1.35618,0.999699 0.9543,1.80872 -0.40893,0.8232 -1.26086,0.97013 -1.85006,0.31907 z m 7.34399,12.00398 c 0.94868,-0.39638 1.46801,-1.09568 1.46801,-1.97672 0,-0.5093 -0.0548,-0.51743 -1.18799,-0.17638 -1.35537,0.40791 -3.57451,1.6418 -3.57451,1.98751 0,0.60113 2.01027,0.70217 3.29449,0.16559 z m -2.55366,-8.40969 c 0.83542,-0.83542 -0.19181,-2.12667 -1.14017,-1.43321 -0.3448,0.25213 -0.4248,0.53529 -0.2961,1.04808 0.18846,0.75088 0.88401,0.93739 1.43627,0.38513 z m 16.845328,66.35487 c -0.3898,-1.22418 -0.88191,-4.53079 -0.70119,-4.71151 0.12357,-0.12357 1.63932,-0.19095 3.36833,-0.14974 l 3.14367,0.0749 0.73279,2.36335 c 0.40303,1.29984 0.70488,2.38661 0.67078,2.41504 -0.0341,0.0284 -1.65062,0.10675 -3.59227,0.17403 -2.41548,0.0837 -3.55928,0.0312 -3.62211,-0.16609 z M 89.097452,92.699241 c 1.20262,-2.357335 3.31873,-2.900752 4.94866,-1.270821 1.05562,1.055619 1.18811,1.622142 0.30427,1.30106 -1.43564,-0.521547 -3.29373,-0.213995 -5.57628,0.922985 -0.12015,0.05986 0.0254,-0.369099 0.32335,-0.953224 z"
       id="path1"
       sodipodi:nodetypes="cssssssssssscsssssssccccccccssscccccssscccccssscccscscccccccsscscsscccsscccccssssscsssscsscccssccsssccccccccccccssscccccsssscccscssscccsssccsscsscsscssssscssscssssscsscccssssscccsssscscscccccssccssssscsscscssscssssscsssssscccssssssscccssssccscccccsssssscsscssscsscsssssscsssscsssssssscscsscsscssssssssssssssscssscsscsssscsssssssssccssssssssscsscsssssscssssscsscssssssssssssscssscssssssssssssscssscsssccccssccsssssssssssssssscssssscsssc" />
    <text
       xml:space="preserve"
       style="font-size:6.35px;text-align:start;writing-mode:lr-tb;direction:ltr;text-anchor:start;fill:#000000;stroke:#000000;stroke-width:0.79375;stroke-linecap:round"
       x="73.095383"
       y="137.80403"
       id="text1"><tspan
         sodipodi:role="line"
         id="tspan1"
         style="font-style:normal;font-variant:normal;font-weight:normal;font-stretch:normal;font-size:6.35px;font-family:'Source Code Pro';-inkscape-font-specification:'Source Code Pro, Normal';font-variant-ligatures:normal;font-variant-caps:normal;font-variant-numeric:normal;font-variant-east-asian:normal;stroke-width:0.79375"
         x="73.095383"
         y="137.80403">x += -x;</tspan></text>
  </g>
</svg>
